<?xml version="1.0" encoding="utf-8"?>
<!-- Generator: Adobe Illustrator 26.0.3, SVG Export Plug-In . SVG Version: 6.00 Build 0)  -->
<svg version="1.1" xmlns="http://www.w3.org/2000/svg" xmlns:xlink="http://www.w3.org/1999/xlink" x="0px" y="0px"
	 viewBox="0 0 572.1 270" style="enable-background:new 0 0 572.1 270;" xml:space="preserve">
<style type="text/css">
	.st0{opacity:0.44;}
	.st1{fill:#2A2A58;}
	.st2{filter:url(#Adobe_OpacityMaskFilter);}
	.st3{fill-rule:evenodd;clip-rule:evenodd;fill:#FFFFFF;}
	.st4{mask:url(#mask-2_2_);fill-rule:evenodd;clip-rule:evenodd;fill:#1E1F3C;}
	.st5{fill-rule:evenodd;clip-rule:evenodd;fill:#1E1F3C;}
	.st6{filter:url(#Adobe_OpacityMaskFilter_00000057121145585204420420000001520730122150135959_);}
	.st7{mask:url(#mask-2_1_);fill-rule:evenodd;clip-rule:evenodd;fill:#1E1F3C;}
	.st8{fill:#E8E8E8;}
	.st9{fill:#FCC906;}
	.st10{fill:#FC0009;}
	.st11{filter:url(#Adobe_OpacityMaskFilter_00000071558743603964188820000009250191805383996049_);}
	.st12{mask:url(#mask-2_6_);fill-rule:evenodd;clip-rule:evenodd;fill:#1E1F3C;}
	.st13{filter:url(#Adobe_OpacityMaskFilter_00000157305011994755927580000011287833919731848103_);}
	.st14{mask:url(#mask-2_5_);fill-rule:evenodd;clip-rule:evenodd;fill:#1E1F3C;}
	.st15{fill:#FFFFFF;}
	.st16{fill:none;stroke:#FFFFFF;stroke-width:1.1842;stroke-linecap:round;stroke-linejoin:round;stroke-miterlimit:10;}
	.st17{fill:none;stroke:#EB2E46;stroke-width:1.1842;stroke-linecap:round;stroke-linejoin:round;stroke-miterlimit:10;}
	.st18{fill:none;stroke:#FADC00;stroke-width:1.1842;stroke-linecap:round;stroke-linejoin:round;stroke-miterlimit:10;}
	.st19{fill:none;stroke:#FFFFFF;stroke-width:1.1842;stroke-miterlimit:10;}
	.st20{fill:none;stroke:#FADC00;stroke-width:1.1842;stroke-miterlimit:10;}
	.st21{fill:#FADC00;}
	.st22{fill:none;stroke:#FADC00;stroke-width:0.9583;stroke-linecap:round;stroke-linejoin:round;stroke-miterlimit:10;}
	.st23{fill:none;stroke:#FFFFFF;stroke-width:1.0206;stroke-linecap:round;stroke-linejoin:round;stroke-miterlimit:10;}
	.st24{fill:none;stroke:#FFFFFF;stroke-width:1.1842;stroke-linejoin:bevel;stroke-miterlimit:10;}
	.st25{fill:none;stroke:#FFFFFF;stroke-width:1.0314;stroke-miterlimit:10;}
	.st26{fill:#EB2E46;}
	.st27{fill:#FFCB00;}
	.st28{fill:none;stroke:#FFCB00;stroke-width:1.7461;stroke-linecap:round;stroke-linejoin:round;stroke-miterlimit:10;}
	.st29{fill:none;stroke:#EB2E46;stroke-width:1.7461;stroke-linecap:round;stroke-linejoin:round;stroke-miterlimit:10;}
	.st30{fill:none;stroke:#FFCB00;stroke-width:1.7461;stroke-linecap:round;stroke-miterlimit:10;}
	.st31{fill:none;stroke:#FFFFFF;stroke-width:1.7461;stroke-linecap:round;stroke-miterlimit:10;}
	.st32{fill:none;stroke:#FFFFFF;stroke-width:1.7461;stroke-linecap:round;stroke-linejoin:round;stroke-miterlimit:10;}
	.st33{fill:none;stroke:#FFCB00;stroke-width:6.1135;stroke-miterlimit:10;}
	.st34{fill:none;stroke:#FFCB00;stroke-width:1.2481;stroke-linecap:round;stroke-miterlimit:10;}
	.st35{fill:none;stroke:#EB2E46;stroke-width:2.0922;stroke-miterlimit:10;}
	.st36{fill:none;stroke:#FFCB00;stroke-width:1.499;stroke-linecap:round;stroke-miterlimit:10;}
	.st37{fill:none;stroke:#FFFFFF;stroke-width:1.2481;stroke-linecap:round;stroke-linejoin:round;stroke-miterlimit:10;}
	.st38{fill:none;stroke:#FFFFFF;stroke-width:1.2034;stroke-linecap:round;stroke-linejoin:round;stroke-miterlimit:10;}
	.st39{fill:#241F20;}
	.st40{fill:none;stroke:#FCC906;stroke-width:2.8685;stroke-miterlimit:10;}
	.st41{fill-rule:evenodd;clip-rule:evenodd;fill:#EB2E46;}
	.st42{fill:#EB2E46;stroke:#241F20;stroke-width:0.5737;stroke-miterlimit:10;}
	.st43{stroke:#EB2E46;stroke-width:0.5737;stroke-linecap:round;stroke-linejoin:round;stroke-miterlimit:10;}
	.st44{fill:none;stroke:#FFFFFF;stroke-width:2.4506;stroke-linecap:round;stroke-linejoin:round;stroke-miterlimit:10;}
	.st45{fill:none;stroke:#FFCB00;stroke-width:3.4512;stroke-linecap:round;stroke-linejoin:round;stroke-miterlimit:10;}
	.st46{fill:#F4CB2A;}
	.st47{fill:#13152F;}
	.st48{clip-path:url(#SVGID_00000173862055810963084560000002940209751267380911_);fill:#F4CB2A;}
	.st49{fill:#F5CC26;}
	.st50{fill:#E63434;}
	.st51{fill:none;stroke:#E63434;stroke-width:1.688;stroke-miterlimit:10;}
	.st52{fill:#FFFFFF;stroke:#FFFFFF;stroke-width:1.688;stroke-miterlimit:10;}
	.st53{fill:none;stroke:#FFCB00;stroke-width:8.5817;stroke-linecap:round;stroke-linejoin:round;stroke-miterlimit:10;}
	.st54{fill:none;stroke:#FC0009;stroke-width:8.5817;stroke-linecap:round;stroke-linejoin:round;stroke-miterlimit:10;}
	.st55{fill:none;stroke:#2A2A58;stroke-width:2.8309;stroke-linecap:round;stroke-linejoin:round;stroke-miterlimit:10;}
	.st56{fill:none;stroke:#FFCB00;stroke-width:3.9867;stroke-linecap:round;stroke-linejoin:round;stroke-miterlimit:10;}
	.st57{fill:none;stroke:#FFCB00;stroke-width:7.9429;stroke-linecap:round;stroke-linejoin:round;stroke-miterlimit:10;}
	.st58{fill:none;stroke:#FC0009;stroke-width:7.9429;stroke-linecap:round;stroke-linejoin:round;stroke-miterlimit:10;}
	.st59{fill:none;stroke:#FFCB00;stroke-width:3.2615;stroke-miterlimit:10;}
	.st60{fill:none;stroke:#FC0009;stroke-width:3.2615;stroke-miterlimit:10;}
	.st61{fill:#C53418;}
	.st62{fill:#00558A;}
	.st63{fill:#F06D93;}
	.st64{fill:#22704F;}
	.st65{fill:#B8321A;}
	.st66{fill:#F7A832;}
	.st67{fill:#EE6C92;}
	.st68{fill:#035283;}
	.st69{fill:#F4A632;}
	.st70{fill:#EBA231;}
	.st71{fill:#1E6B4D;}
	.st72{fill:#E9CBCD;}
	.st73{fill:#D4B0B3;}
	.st74{fill:none;stroke:#FFFFFF;stroke-width:1.1114;stroke-miterlimit:10;}
	.st75{clip-path:url(#SVGID_00000111166655662993856720000007084006997426681493_);}
	
		.st76{clip-path:url(#SVGID_00000111166655662993856720000007084006997426681493_);fill:none;stroke:#FFFFFF;stroke-width:1.1114;stroke-miterlimit:10;}
	.st77{fill:#EFB207;}
	.st78{fill:#D39C02;}
	.st79{fill:none;stroke:#EFB207;stroke-width:2.4382;stroke-linecap:round;stroke-miterlimit:10;}
	.st80{fill:none;stroke:#EFB207;stroke-width:2.1625;stroke-linecap:round;stroke-miterlimit:10;}
	.st81{fill:#C10C33;}
	.st82{fill:#EA7162;}
	.st83{fill:#CC4F46;}
	.st84{fill:#E5AF05;}
	.st85{fill:#EFB807;}
	.st86{fill:none;stroke:#E2A307;stroke-width:1.2298;stroke-linecap:round;stroke-miterlimit:10;}
	.st87{fill:#E2A307;}
	.st88{fill:#AF0431;}
	.st89{fill:#D6564C;}
	.st90{filter:url(#Adobe_OpacityMaskFilter_00000042013152161933866120000016520557377990340776_);}
	
		.st91{clip-path:url(#SVGID_00000141448697334742763870000015321943531273228191_);fill-rule:evenodd;clip-rule:evenodd;fill:#FFFFFF;}
	
		.st92{clip-path:url(#SVGID_00000141448697334742763870000015321943531273228191_);mask:url(#mask-2_00000016768305896756026710000008481543339731133878_);fill-rule:evenodd;clip-rule:evenodd;fill:#DD1F3F;}
	
		.st93{clip-path:url(#SVGID_00000141448697334742763870000015321943531273228191_);fill-rule:evenodd;clip-rule:evenodd;fill:#DD1F3F;}
	.st94{fill:none;stroke:#C10C33;stroke-width:1.0605;stroke-linecap:round;stroke-miterlimit:10;}
	.st95{fill:none;stroke:#E2A307;stroke-width:1.0596;stroke-linecap:round;stroke-miterlimit:10;}
	.st96{filter:url(#Adobe_OpacityMaskFilter_00000013904932331681813870000004740440578171814286_);}
	
		.st97{clip-path:url(#SVGID_00000181052998295141684450000006695151729296330900_);fill-rule:evenodd;clip-rule:evenodd;fill:#FFFFFF;}
	
		.st98{clip-path:url(#SVGID_00000181052998295141684450000006695151729296330900_);mask:url(#mask-2_00000179619296444954054550000004461847472809616514_);fill-rule:evenodd;clip-rule:evenodd;fill:#DD1F3F;}
	
		.st99{clip-path:url(#SVGID_00000181052998295141684450000006695151729296330900_);fill-rule:evenodd;clip-rule:evenodd;fill:#DD1F3F;}
	.st100{fill:none;stroke:#C10C33;stroke-width:0.9137;stroke-linecap:round;stroke-miterlimit:10;}
	.st101{fill-rule:evenodd;clip-rule:evenodd;fill:#2A2A58;}
	.st102{fill:none;stroke:#5EF6A1;stroke-width:1.9105;stroke-miterlimit:10;}
	.st103{fill:none;stroke:#5EF6A1;stroke-width:2.0431;stroke-miterlimit:10;}
	.st104{fill:#23264F;}
	.st105{fill:#F8CF27;}
	.st106{fill:#EDCA45;}
	.st107{opacity:0.75;fill:#FFFFFF;}
	.st108{clip-path:url(#SVGID_00000132777991701217794840000014564089297423465398_);}
	.st109{opacity:0.16;}
	.st110{clip-path:url(#SVGID_00000161612804223442462460000002331531115885844146_);}
	.st111{fill:#F5EEE5;}
	.st112{fill:none;stroke:#EFB632;stroke-width:2.8723;stroke-miterlimit:10;}
	.st113{fill:none;stroke:#777777;stroke-width:7.1256;stroke-miterlimit:10;}
	.st114{fill:none;stroke:#777777;stroke-width:4.7773;stroke-miterlimit:10;}
	.st115{fill:none;stroke:#1C0F01;stroke-width:1.0117;stroke-miterlimit:10;}
	.st116{fill:#777777;}
	.st117{fill:none;stroke:#EFB632;stroke-width:3.4399;stroke-miterlimit:10;}
	.st118{fill:none;stroke:#EFB632;stroke-width:2;stroke-miterlimit:10;}
	.st119{fill:none;stroke:#EFB632;stroke-width:4;stroke-miterlimit:10;}
	.st120{fill:none;stroke:#EFB632;stroke-width:2.8081;stroke-miterlimit:10;}
	.st121{fill:#606060;}
	.st122{fill:#000019;}
	.st123{clip-path:url(#SVGID_00000145058733988222799300000003996252943383437221_);}
	.st124{clip-path:url(#SVGID_00000126314239112957236100000012283513819775036314_);fill:#85C2FF;}
	.st125{clip-path:url(#SVGID_00000126314239112957236100000012283513819775036314_);fill:#007DFF;}
	.st126{fill:#00007F;}
	.st127{fill:#1010FC;}
	.st128{fill:#0000FF;}
	.st129{fill:#007DFF;}
	.st130{clip-path:url(#SVGID_00000154386320774566855070000008416605576494454713_);fill:#65B1FE;}
	.st131{clip-path:url(#SVGID_00000154386320774566855070000008416605576494454713_);fill:#C1E1FF;}
	.st132{clip-path:url(#SVGID_00000154386320774566855070000008416605576494454713_);fill:#FFFFFF;}
	.st133{clip-path:url(#SVGID_00000150095275759773286010000014034315766334902429_);fill:#85C2FF;}
	.st134{clip-path:url(#SVGID_00000150095275759773286010000014034315766334902429_);fill:#007DFF;}
	.st135{clip-path:url(#SVGID_00000145058733988222799300000003996252943383437221_);fill:#00007F;}
	.st136{opacity:0.42;fill:#110605;}
	.st137{opacity:0.27;}
	.st138{fill:none;stroke:#FFE416;stroke-width:0.1955;stroke-miterlimit:10;}
	.st139{fill:none;stroke:#FFE416;stroke-width:0.1388;stroke-miterlimit:10;}
	.st140{fill:none;stroke:#FFE416;stroke-width:0.1855;stroke-miterlimit:10;}
	.st141{fill:none;stroke:#FFE416;stroke-width:0.2395;stroke-miterlimit:10;}
	.st142{opacity:0.14;fill:url(#SVGID_00000140014763862680730250000015567817392059202993_);}
	.st143{opacity:0.31;}
	.st144{fill:none;stroke:#FFFFFF;stroke-width:3;stroke-linecap:round;stroke-linejoin:round;stroke-miterlimit:10;}
	.st145{fill:none;stroke:#FFFFFF;stroke-width:2.8739;stroke-linecap:round;stroke-linejoin:round;stroke-miterlimit:10;}
	.st146{fill:none;stroke:#FFFFFF;stroke-width:3.2959;stroke-linecap:round;stroke-linejoin:round;stroke-miterlimit:10;}
	.st147{fill:#65B1FE;}
	.st148{fill:#C1E1FF;}
	.st149{fill:#0049FF;stroke:#0200FF;stroke-width:1.0799;stroke-miterlimit:10;}
	.st150{fill:#0200FF;}
	.st151{fill:none;stroke:#0200FF;stroke-width:1.0799;stroke-miterlimit:10;}
	.st152{fill:none;stroke:#0200FF;stroke-width:1.2106;stroke-miterlimit:10;}
	.st153{fill:none;stroke:#FFFFFF;stroke-width:1.0799;stroke-linecap:round;stroke-linejoin:round;stroke-miterlimit:10;}
	.st154{fill:none;stroke:#FFFFFF;stroke-width:1.2766;stroke-linecap:round;stroke-linejoin:round;stroke-miterlimit:10;}
	.st155{fill:#8EBDFF;}
	.st156{opacity:0.3;fill:url(#SVGID_00000062879909939148877180000011750078942648438712_);}
	.st157{fill:none;stroke:#FFFFFF;stroke-width:0.6282;stroke-linecap:round;stroke-linejoin:round;stroke-miterlimit:10;}
	.st158{fill:none;stroke:#2A2A58;stroke-width:1.8846;stroke-miterlimit:10;}
	.st159{fill:none;stroke:#EB2E46;stroke-width:1.2564;stroke-linecap:round;stroke-linejoin:round;stroke-miterlimit:10;}
	.st160{fill:none;stroke:#EB2E46;stroke-width:0.6282;stroke-linecap:round;stroke-linejoin:round;stroke-miterlimit:10;}
	.st161{fill:none;stroke:#FFFFFF;stroke-width:1.0548;stroke-linecap:round;stroke-linejoin:round;stroke-miterlimit:10;}
	.st162{fill:none;stroke:#2A2A58;stroke-width:3.1644;stroke-miterlimit:10;}
	.st163{fill:none;stroke:#EB2E46;stroke-width:2.1096;stroke-linecap:round;stroke-linejoin:round;stroke-miterlimit:10;}
	.st164{fill:none;stroke:#EB2E46;stroke-width:2;stroke-linecap:round;stroke-linejoin:round;stroke-miterlimit:10;}
	.st165{fill:none;stroke:#FFFFFF;stroke-width:0.7738;stroke-linecap:round;stroke-linejoin:round;stroke-miterlimit:10;}
	.st166{fill:none;stroke:#2A2A58;stroke-width:2.3215;stroke-miterlimit:10;}
	.st167{fill:none;stroke:#EB2E46;stroke-width:1.5476;stroke-linecap:round;stroke-linejoin:round;stroke-miterlimit:10;}
	.st168{fill:none;stroke:#EB2E46;stroke-width:0.7738;stroke-linecap:round;stroke-linejoin:round;stroke-miterlimit:10;}
</style>
<g id="Layer_1">
</g>
<g id="Layer_2">
	<g>
		<g>
			<g>
				<path class="st15" d="M370.72,194.52c0.97,1.27,1.45,2.8,1.45,4.59c0,2.62-1.05,4.65-3.16,6.07s-5.16,2.14-9.15,2.14h-16.16
					V177.4h15.3c3.82,0,6.73,0.71,8.72,2.12c1.99,1.41,2.99,3.31,2.99,5.71c0,1.43-0.35,2.7-1.05,3.83s-1.69,2.02-2.97,2.67
					C368.41,192.31,369.75,193.25,370.72,194.52z M352.09,183.51v5.77h5.81c2.85,0,4.27-0.97,4.27-2.91c0-1.91-1.43-2.86-4.27-2.86
					H352.09z M363.63,198.17c0-2.02-1.48-3.03-4.45-3.03h-7.1v6.07h7.1C362.15,201.2,363.63,200.19,363.63,198.17z"/>
				<path class="st15" d="M387.16,184.56c1.33-0.53,2.84-0.79,4.55-0.79v7.31c-0.74-0.09-1.35-0.13-1.84-0.13
					c-1.74,0-3.1,0.47-4.08,1.41c-0.98,0.94-1.47,2.38-1.47,4.32v10.64h-8.12v-23.17h7.74v2.78
					C384.76,185.87,385.83,185.08,387.16,184.56z"/>
				<path class="st15" d="M418.38,197.78h-16.84c0.34,1.2,1,2.12,1.99,2.76c0.98,0.64,2.22,0.96,3.7,0.96
					c1.11,0,2.07-0.16,2.89-0.47s1.63-0.83,2.46-1.54l4.27,4.45c-2.25,2.51-5.54,3.76-9.87,3.76c-2.71,0-5.09-0.51-7.14-1.54
					c-2.05-1.03-3.64-2.45-4.77-4.27c-1.13-1.82-1.69-3.89-1.69-6.2c0-2.28,0.55-4.32,1.65-6.13c1.1-1.81,2.61-3.23,4.55-4.25
					c1.94-1.03,4.12-1.54,6.54-1.54c2.31,0,4.4,0.48,6.28,1.43c1.88,0.96,3.37,2.34,4.47,4.15c1.1,1.81,1.65,3.95,1.65,6.43
					C418.51,195.83,418.47,196.5,418.38,197.78z M403.02,190.6c-0.84,0.71-1.38,1.68-1.6,2.91h9.49c-0.23-1.23-0.76-2.19-1.6-2.91
					c-0.84-0.71-1.89-1.07-3.14-1.07C404.9,189.54,403.86,189.89,403.02,190.6z"/>
				<path class="st15" d="M460.23,184.15l-8.25,23.17h-7.86l-4.36-12.61l-4.53,12.61h-7.86l-8.25-23.17h7.69l4.74,14.02l4.92-14.02
					h6.92l4.79,14.15l4.92-14.15H460.23z"/>
				<path class="st15" d="M485.62,197.78h-16.84c0.34,1.2,1,2.12,1.99,2.76c0.98,0.64,2.22,0.96,3.7,0.96
					c1.11,0,2.07-0.16,2.89-0.47s1.63-0.83,2.46-1.54l4.27,4.45c-2.25,2.51-5.54,3.76-9.87,3.76c-2.71,0-5.09-0.51-7.14-1.54
					c-2.05-1.03-3.64-2.45-4.77-4.27c-1.13-1.82-1.69-3.89-1.69-6.2c0-2.28,0.55-4.32,1.65-6.13c1.1-1.81,2.61-3.23,4.55-4.25
					c1.94-1.03,4.12-1.54,6.54-1.54c2.31,0,4.4,0.48,6.28,1.43c1.88,0.96,3.37,2.34,4.47,4.15c1.1,1.81,1.65,3.95,1.65,6.43
					C485.75,195.83,485.7,196.5,485.62,197.78z M470.25,190.6c-0.84,0.71-1.38,1.68-1.6,2.91h9.49c-0.23-1.23-0.76-2.19-1.6-2.91
					c-0.84-0.71-1.89-1.07-3.14-1.07C472.14,189.54,471.09,189.89,470.25,190.6z"/>
				<path class="st15" d="M500.47,184.56c1.33-0.53,2.84-0.79,4.55-0.79v7.31c-0.74-0.09-1.35-0.13-1.84-0.13
					c-1.74,0-3.1,0.47-4.08,1.41c-0.98,0.94-1.47,2.38-1.47,4.32v10.64h-8.12v-23.17h7.74v2.78
					C498.07,185.87,499.15,185.08,500.47,184.56z"/>
				<path class="st15" d="M533.49,184.15l-10,24.11c-1.17,2.85-2.59,4.85-4.27,6c-1.68,1.15-3.73,1.73-6.15,1.73
					c-1.23,0-2.46-0.19-3.7-0.58c-1.24-0.38-2.24-0.89-3.01-1.52l2.82-5.68c0.46,0.43,1,0.76,1.65,1c0.64,0.24,1.29,0.36,1.94,0.36
					c0.77,0,1.4-0.16,1.9-0.47c0.5-0.31,0.92-0.81,1.26-1.5l-9.92-23.47h8.33l5.69,14.15l5.73-14.15H533.49z"/>
			</g>
		</g>
		<g>
			<g>
				<path class="st15" d="M382.88,223.89c0.6,0.34,1.07,0.81,1.42,1.43c0.34,0.61,0.51,1.32,0.51,2.14s-0.17,1.53-0.51,2.14
					c-0.34,0.61-0.82,1.09-1.42,1.42s-1.27,0.51-2.01,0.51c-1.09,0-1.92-0.34-2.48-1.03v0.91h-2.19v-10.9h2.29v3.84
					c0.58-0.64,1.37-0.96,2.38-0.96C381.61,223.38,382.27,223.55,382.88,223.89z M381.92,229.04c0.38-0.4,0.57-0.93,0.57-1.59
					s-0.19-1.2-0.57-1.59c-0.38-0.4-0.86-0.59-1.45-0.59s-1.07,0.2-1.45,0.59c-0.38,0.4-0.57,0.93-0.57,1.59s0.19,1.2,0.57,1.59
					c0.38,0.4,0.86,0.59,1.45,0.59S381.54,229.44,381.92,229.04z"/>
				<path class="st15" d="M393.96,223.5l-3.57,8.39c-0.36,0.91-0.81,1.55-1.34,1.92s-1.18,0.56-1.93,0.56
					c-0.41,0-0.82-0.06-1.22-0.19c-0.4-0.13-0.73-0.3-0.98-0.53l0.84-1.63c0.18,0.16,0.38,0.28,0.61,0.37
					c0.23,0.09,0.46,0.13,0.68,0.13c0.31,0,0.57-0.08,0.76-0.23c0.2-0.15,0.37-0.4,0.53-0.76l0.03-0.07l-3.42-7.96h2.37l2.22,5.36
					l2.23-5.36H393.96z"/>
				<path class="st15" d="M411.74,224.19c0.58,0.59,0.87,1.47,0.87,2.66v4.56h-2.79v-4.1c0-0.56-0.11-0.97-0.32-1.23
					c-0.21-0.26-0.51-0.4-0.89-0.4c-0.42,0-0.76,0.15-1.01,0.44s-0.38,0.74-0.38,1.34v3.95h-2.79v-4.1c0-1.09-0.4-1.63-1.21-1.63
					c-0.43,0-0.77,0.15-1.03,0.44c-0.25,0.29-0.38,0.74-0.38,1.34v3.95h-2.79v-7.96h2.66v0.84c0.29-0.32,0.64-0.57,1.05-0.73
					c0.41-0.16,0.85-0.24,1.33-0.24c0.56,0,1.06,0.1,1.5,0.31c0.44,0.21,0.8,0.52,1.07,0.94c0.31-0.4,0.71-0.71,1.19-0.93
					c0.48-0.22,1-0.32,1.57-0.32C410.37,223.3,411.16,223.6,411.74,224.19z"/>
				<path class="st15" d="M414.54,222.13c-0.31-0.28-0.47-0.64-0.47-1.06c0-0.42,0.16-0.77,0.47-1.06s0.73-0.43,1.23-0.43
					s0.92,0.13,1.23,0.4s0.47,0.62,0.47,1.04c0,0.44-0.16,0.81-0.47,1.09s-0.73,0.43-1.23,0.43S414.85,222.41,414.54,222.13z
					 M414.38,223.44h2.79v7.96h-2.79V223.44z"/>
				<path class="st15" d="M420.68,231.01c-0.7-0.35-1.24-0.84-1.62-1.47c-0.39-0.63-0.58-1.34-0.58-2.13c0-0.79,0.19-1.5,0.58-2.12
					c0.39-0.62,0.93-1.11,1.62-1.45c0.7-0.35,1.48-0.52,2.37-0.52c0.9,0,1.68,0.19,2.34,0.58c0.66,0.39,1.12,0.92,1.4,1.61
					l-2.16,1.1c-0.36-0.71-0.89-1.07-1.59-1.07c-0.5,0-0.91,0.17-1.24,0.5c-0.33,0.33-0.49,0.79-0.49,1.38c0,0.6,0.16,1.07,0.49,1.4
					s0.74,0.51,1.24,0.51c0.7,0,1.22-0.36,1.59-1.07l2.16,1.1c-0.27,0.69-0.74,1.22-1.4,1.61c-0.66,0.39-1.44,0.58-2.34,0.58
					C422.16,231.53,421.38,231.36,420.68,231.01z"/>
				<path class="st15" d="M435.38,224.19c0.6,0.59,0.9,1.47,0.9,2.66v4.56h-2.79v-4.1c0-1.09-0.44-1.63-1.31-1.63
					c-0.48,0-0.86,0.16-1.15,0.47s-0.43,0.78-0.43,1.41v3.85h-2.79v-10.9h2.79v3.67c0.3-0.28,0.66-0.5,1.07-0.65
					c0.41-0.15,0.85-0.22,1.32-0.22C433.98,223.3,434.78,223.6,435.38,224.19z"/>
				<path class="st15" d="M446.25,228.12h-5.79c0.12,0.41,0.35,0.73,0.68,0.95c0.34,0.22,0.76,0.33,1.27,0.33
					c0.38,0,0.71-0.05,0.99-0.16c0.28-0.11,0.56-0.28,0.85-0.53l1.47,1.53c-0.77,0.86-1.91,1.29-3.4,1.29
					c-0.93,0-1.75-0.18-2.45-0.53c-0.71-0.35-1.25-0.84-1.64-1.47c-0.39-0.63-0.58-1.34-0.58-2.13c0-0.78,0.19-1.49,0.57-2.11
					c0.38-0.62,0.9-1.11,1.57-1.46c0.67-0.35,1.42-0.53,2.25-0.53c0.79,0,1.51,0.17,2.16,0.49c0.65,0.33,1.16,0.8,1.54,1.42
					c0.38,0.62,0.57,1.36,0.57,2.21C446.29,227.45,446.28,227.68,446.25,228.12z M440.97,225.66c-0.29,0.25-0.47,0.58-0.55,1h3.26
					c-0.08-0.42-0.26-0.75-0.55-1c-0.29-0.24-0.65-0.37-1.08-0.37S441.26,225.41,440.97,225.66z"/>
				<path class="st15" d="M447.59,220.5h2.79v10.9h-2.79V220.5z"/>
				<path class="st15" d="M458.61,224.21c0.7,0.6,1.04,1.53,1.04,2.77v4.42h-2.6v-1.03c-0.4,0.77-1.19,1.16-2.35,1.16
					c-0.62,0-1.15-0.11-1.6-0.32c-0.45-0.21-0.79-0.51-1.02-0.87c-0.23-0.37-0.35-0.79-0.35-1.26c0-0.75,0.29-1.34,0.87-1.76
					c0.58-0.42,1.47-0.62,2.67-0.62h1.59c-0.05-0.84-0.61-1.26-1.69-1.26c-0.38,0-0.77,0.06-1.16,0.18c-0.39,0.12-0.73,0.29-1,0.51
					l-0.94-1.9c0.44-0.29,0.98-0.52,1.61-0.68c0.63-0.16,1.27-0.24,1.9-0.24C456.9,223.3,457.91,223.61,458.61,224.21z
					 M456.33,229.54c0.24-0.16,0.42-0.39,0.53-0.69v-0.69h-1.21c-0.81,0-1.22,0.27-1.22,0.81c0,0.25,0.09,0.44,0.28,0.59
					c0.19,0.15,0.44,0.22,0.76,0.22C455.8,229.77,456.09,229.69,456.33,229.54z"/>
				<path class="st15" d="M470,220.5v10.9h-2.66v-0.79c-0.52,0.62-1.3,0.93-2.34,0.93c-0.73,0-1.39-0.17-1.98-0.51
					c-0.6-0.34-1.07-0.82-1.42-1.45s-0.52-1.35-0.52-2.17s0.17-1.55,0.52-2.17s0.82-1.1,1.42-1.43c0.6-0.33,1.26-0.5,1.98-0.5
					c0.95,0,1.68,0.27,2.2,0.82v-3.63H470z M466.78,228.81c0.31-0.34,0.47-0.81,0.47-1.4c0-0.59-0.15-1.05-0.46-1.38
					c-0.31-0.33-0.71-0.5-1.2-0.5c-0.49,0-0.89,0.17-1.2,0.5c-0.31,0.33-0.47,0.79-0.47,1.38c0,0.6,0.16,1.07,0.47,1.4
					c0.31,0.34,0.71,0.51,1.2,0.51C466.07,229.32,466.47,229.15,466.78,228.81z"/>
				<path class="st15" d="M478.21,224.21c0.7,0.6,1.04,1.53,1.04,2.77v4.42h-2.6v-1.03c-0.4,0.77-1.19,1.16-2.35,1.16
					c-0.62,0-1.15-0.11-1.6-0.32c-0.45-0.21-0.79-0.51-1.02-0.87c-0.23-0.37-0.35-0.79-0.35-1.26c0-0.75,0.29-1.34,0.87-1.76
					c0.58-0.42,1.47-0.62,2.67-0.62h1.59c-0.05-0.84-0.61-1.26-1.69-1.26c-0.38,0-0.77,0.06-1.16,0.18c-0.39,0.12-0.73,0.29-1,0.51
					l-0.94-1.9c0.44-0.29,0.98-0.52,1.61-0.68c0.63-0.16,1.27-0.24,1.9-0.24C476.51,223.3,477.52,223.61,478.21,224.21z
					 M475.94,229.54c0.24-0.16,0.42-0.39,0.53-0.69v-0.69h-1.21c-0.81,0-1.22,0.27-1.22,0.81c0,0.25,0.09,0.44,0.28,0.59
					c0.19,0.15,0.44,0.22,0.76,0.22C475.41,229.77,475.69,229.69,475.94,229.54z"/>
				<path class="st15" d="M481.01,231.06c-0.32-0.31-0.48-0.71-0.48-1.19c0-0.49,0.16-0.89,0.48-1.19c0.32-0.3,0.72-0.46,1.2-0.46
					c0.49,0,0.89,0.15,1.2,0.46s0.47,0.7,0.47,1.19c0,0.48-0.16,0.88-0.48,1.19s-0.72,0.47-1.2,0.47
					C481.73,231.53,481.33,231.38,481.01,231.06z"/>
				<path class="st15" d="M485.34,222.13c-0.31-0.28-0.47-0.64-0.47-1.06c0-0.42,0.16-0.77,0.47-1.06s0.73-0.43,1.23-0.43
					s0.92,0.13,1.23,0.4s0.47,0.62,0.47,1.04c0,0.44-0.16,0.81-0.47,1.09s-0.73,0.43-1.23,0.43S485.65,222.41,485.34,222.13z
					 M485.18,223.44h2.79v7.96h-2.79V223.44z"/>
				<path class="st15" d="M491.47,231.01c-0.69-0.35-1.22-0.84-1.61-1.47c-0.39-0.63-0.58-1.34-0.58-2.13
					c0-0.78,0.19-1.49,0.58-2.12c0.39-0.63,0.92-1.11,1.6-1.46c0.68-0.35,1.45-0.52,2.31-0.52c0.86,0,1.64,0.17,2.32,0.52
					c0.69,0.35,1.22,0.83,1.6,1.45c0.38,0.62,0.57,1.33,0.57,2.12c0,0.79-0.19,1.5-0.57,2.13c-0.38,0.63-0.92,1.12-1.6,1.47
					c-0.69,0.35-1.46,0.53-2.32,0.53C492.92,231.53,492.15,231.36,491.47,231.01z M494.98,228.81c0.31-0.34,0.47-0.81,0.47-1.4
					c0-0.59-0.16-1.05-0.47-1.38c-0.31-0.33-0.72-0.5-1.21-0.5s-0.89,0.17-1.21,0.5c-0.31,0.33-0.47,0.79-0.47,1.38
					c0,0.6,0.16,1.07,0.47,1.4s0.72,0.51,1.21,0.51S494.67,229.15,494.98,228.81z"/>
			</g>
		</g>
		<g>
			<g>
				<path class="st27" d="M471.7,135.09h-68.4c-4.14,0-7.5-3.36-7.5-7.5V62.18c0-4.14,3.36-7.5,7.5-7.5h68.4
					c4.14,0,7.5,3.36,7.5,7.5v65.41C479.2,131.74,475.84,135.09,471.7,135.09z"/>
				<path class="st15" d="M475.5,141.15h-76.83c-4.94,0-8.97-4.02-8.97-8.97V56.7c0-4.94,4.02-8.97,8.97-8.97h76.83
					c4.94,0,8.97,4.02,8.97,8.97v75.48C484.46,137.13,480.44,141.15,475.5,141.15z M398.67,49.65c-3.89,0-7.05,3.16-7.05,7.05v75.48
					c0,3.89,3.16,7.05,7.05,7.05h76.83c3.89,0,7.05-3.16,7.05-7.05V56.7c0-3.89-3.16-7.05-7.05-7.05H398.67z"/>
				<g>
					<g>
						<path class="st1" d="M424.84,85.07l-3.42-1.34c0.72-1.84,7.28-17.99,15.66-18c0,0,0,0,0.01,0c8.4,0,14.96,16.16,15.67,18
							l-3.42,1.34c-2.37-6.06-7.79-15.66-12.25-15.66c0,0,0,0,0,0C432.63,69.41,427.21,79.01,424.84,85.07z"/>
						<path class="st1" d="M446.32,101.7c-2.17-8.46-6.4-17.51-9.24-17.51c-2.04,0-6.35,5.55-9.13,17.48l-3.58-0.83
							c0.79-3.39,5.12-20.32,12.71-20.32c7.24,0,11.93,16.89,12.8,20.28L446.32,101.7z"/>
						<path class="st1" d="M437.08,125.09c-7.13,0-14.09-3.09-19.59-8.71c-5.05-5.16-8.33-11.88-8.99-18.45
							c-0.08-0.84,0.19-1.7,0.75-2.35c0.56-0.66,1.37-1.06,2.23-1.11c10.48-0.59,15.86,4.67,18.24,8.22
							c3.67-7.26,5.86-8.21,7.36-8.21c3.1,0,6,4.79,7.59,8c5.13-7.49,14.23-8.09,17.96-7.99c0.86,0.02,1.69,0.4,2.27,1.02
							c0.58,0.63,0.88,1.44,0.84,2.29C465,113.1,452.41,125.09,437.08,125.09z M412.22,98.11c1.41,11.14,11.79,23.3,24.86,23.3
							c13.19,0,24.05-10.17,24.95-23.26c-0.03,0-0.06,0-0.09,0c-3.47,0-10.64,0.78-14.47,6.75c-0.67,1.04-1.83,1.66-3.06,1.56
							c-1.22-0.08-2.27-0.78-2.8-1.9c-1.78-3.73-3.67-6.02-4.47-6.38c-0.6,0.36-2.13,2.1-4.38,6.65c-0.54,1.09-1.63,1.8-2.84,1.86
							c-1.2,0.07-2.35-0.54-2.99-1.56C424.81,101.75,420.54,97.83,412.22,98.11z M437.24,98.14L437.24,98.14z"/>
						<path class="st1" d="M460.3,97.43l-3.21-1.79l1.6,0.9l-1.61-0.88c0.09-0.17,2.09-4.1-0.93-10.53c-2.13,0-6.76,0.77-9.91,6.82
							l-3.26-1.69c4.38-8.44,11.51-8.86,13.59-8.79c1.18,0.04,2.23,0.73,2.75,1.79C463.42,91.66,460.43,97.2,460.3,97.43z"/>
						<path class="st1" d="M414,97.19c-0.13-0.23-3.07-5.67,0.95-13.94c0.52-1.07,1.57-1.75,2.76-1.79
							c2.04-0.06,9.05,0.36,13.36,8.66l-3.26,1.69c-3.07-5.91-7.59-6.67-9.68-6.68c-2.95,6.3-0.94,10.23-0.92,10.27L414,97.19z"/>
					</g>
					<path class="st1" d="M437.96,128.41h-1.21c-0.65,0-1.17-0.53-1.17-1.17v-2.84c0-0.65,0.53-1.17,1.17-1.17h1.21
						c0.65,0,1.17,0.53,1.17,1.17v2.84C439.13,127.89,438.6,128.41,437.96,128.41z"/>
				</g>
				<path class="st26" d="M497.87,67.85c0.72,0,1.31-0.59,1.31-1.31s-0.59-1.31-1.31-1.31h-8.24V53.9h8.24
					c0.72,0,1.31-0.59,1.31-1.31s-0.59-1.31-1.31-1.31h-8.27c-0.32-5.02-4.34-9.03-9.35-9.35v-8.27c0-0.72-0.59-1.31-1.31-1.31
					s-1.31,0.59-1.31,1.31v8.24h-11.33v-8.24c0-0.72-0.59-1.31-1.31-1.31s-1.31,0.59-1.31,1.31v8.24h-11.33v-8.24
					c0-0.72-0.59-1.31-1.31-1.31s-1.31,0.59-1.31,1.31v8.24h-11.33v-8.24c0-0.72-0.59-1.31-1.31-1.31s-1.31,0.59-1.31,1.31v8.24
					h-11.33v-8.24c0-0.72-0.59-1.31-1.31-1.31s-1.31,0.59-1.31,1.31v8.24h-11.33v-8.24c0-0.72-0.59-1.31-1.31-1.31
					s-1.31,0.59-1.31,1.31v8.24h-11.33v-8.24c0-0.72-0.59-1.31-1.31-1.31s-1.31,0.59-1.31,1.31v8.27c-5.02,0.32-9.03,4.33-9.35,9.35
					h-8.27c-0.72,0-1.31,0.59-1.31,1.31s0.59,1.31,1.31,1.31h8.24v11.33h-8.24c-0.72,0-1.31,0.59-1.31,1.31s0.59,1.31,1.31,1.31
					h8.24v11.33h-8.24c-0.72,0-1.31,0.59-1.31,1.31s0.59,1.31,1.31,1.31h8.24v11.33h-8.24c-0.72,0-1.31,0.59-1.31,1.31
					s0.59,1.31,1.31,1.31h8.24v11.33h-8.24c-0.72,0-1.31,0.59-1.31,1.31s0.59,1.31,1.31,1.31h8.24v11.33h-8.24
					c-0.72,0-1.31,0.59-1.31,1.31s0.59,1.31,1.31,1.31h8.24v11.33h-8.24c-0.72,0-1.31,0.59-1.31,1.31s0.59,1.31,1.31,1.31h8.27
					c0.32,5.02,4.34,9.03,9.35,9.35v8.27c0,0.72,0.59,1.31,1.31,1.31s1.31-0.59,1.31-1.31v-8.24h11.33v8.24
					c0,0.72,0.59,1.31,1.31,1.31s1.31-0.59,1.31-1.31v-8.24h11.33v8.24c0,0.72,0.59,1.31,1.31,1.31s1.31-0.59,1.31-1.31v-8.24h11.33
					v8.24c0,0.72,0.59,1.31,1.31,1.31s1.31-0.59,1.31-1.31v-8.24h11.33v8.24c0,0.72,0.59,1.31,1.31,1.31s1.31-0.59,1.31-1.31v-8.24
					h11.33v8.24c0,0.72,0.59,1.31,1.31,1.31s1.31-0.59,1.31-1.31v-8.24h11.33v8.24c0,0.72,0.59,1.31,1.31,1.31s1.31-0.59,1.31-1.31
					v-8.27c5.02-0.32,9.03-4.33,9.35-9.35h8.27c0.72,0,1.31-0.59,1.31-1.31s-0.59-1.31-1.31-1.31h-8.24v-11.33h8.24
					c0.72,0,1.31-0.59,1.31-1.31s-0.59-1.31-1.31-1.31h-8.24V109.7h8.24c0.72,0,1.31-0.59,1.31-1.31s-0.59-1.31-1.31-1.31h-8.24
					V95.75h8.24c0.72,0,1.31-0.59,1.31-1.31s-0.59-1.31-1.31-1.31h-8.24V81.8h8.24c0.72,0,1.31-0.59,1.31-1.31s-0.59-1.31-1.31-1.31
					h-8.24V67.85H497.87z M487.18,136.96c0,4.18-3.4,7.57-7.57,7.57h-85.04c-4.18,0-7.57-3.4-7.57-7.57V51.92
					c0-4.18,3.4-7.57,7.57-7.57h85.04c4.18,0,7.57,3.4,7.57,7.57V136.96z"/>
			</g>
			<circle class="st1" cx="472.01" cy="127.14" r="3.04"/>
			<circle class="st1" cx="472.01" cy="63.19" r="3.04"/>
			<circle class="st1" cx="403.63" cy="127.14" r="3.04"/>
			<circle class="st1" cx="403.63" cy="63.19" r="3.04"/>
			<path class="st15" d="M473.66,130.57c-0.21,0-0.41-0.11-0.53-0.3l-3.3-5.62c-0.17-0.29-0.07-0.67,0.22-0.84
				c0.29-0.17,0.67-0.07,0.84,0.22l3.3,5.62c0.17,0.29,0.07,0.67-0.22,0.84C473.87,130.54,473.76,130.57,473.66,130.57z"/>
			<path class="st15" d="M470.5,66.43c-0.1,0-0.21-0.03-0.31-0.08c-0.29-0.17-0.39-0.54-0.22-0.84l3.04-5.24
				c0.17-0.29,0.55-0.39,0.84-0.22c0.29,0.17,0.39,0.54,0.22,0.84l-3.04,5.24C470.92,66.32,470.71,66.43,470.5,66.43z"/>
			<path class="st15" d="M405.53,66.57c-0.19,0-0.39-0.09-0.51-0.27l-3.8-5.54c-0.19-0.28-0.12-0.66,0.16-0.85
				c0.28-0.19,0.66-0.12,0.85,0.16l3.8,5.54c0.19,0.28,0.12,0.66-0.16,0.85C405.78,66.54,405.65,66.57,405.53,66.57z"/>
			<path class="st15" d="M403.63,130.8c-0.34,0-0.61-0.27-0.61-0.61v-6.08c0-0.34,0.27-0.61,0.61-0.61s0.61,0.27,0.61,0.61v6.08
				C404.24,130.52,403.97,130.8,403.63,130.8z"/>
			<path class="st15" d="M435.94,119.24c-0.02,0-0.05,0-0.07,0c-16.56-1.88-21.55-18.37-21.6-18.53c-0.09-0.32,0.09-0.66,0.42-0.76
				c0.33-0.09,0.67,0.09,0.76,0.42c0.05,0.16,4.82,15.88,20.56,17.66c0.34,0.04,0.58,0.34,0.54,0.68
				C436.51,119.01,436.25,119.24,435.94,119.24z"/>
			<path class="st15" d="M418.76,94.35c-0.19,0-0.37-0.08-0.49-0.25c-1.97-2.63-0.16-7.47-0.08-7.68c0.12-0.32,0.47-0.47,0.79-0.35
				c0.32,0.12,0.47,0.47,0.35,0.79c-0.02,0.04-1.65,4.42-0.08,6.51c0.2,0.27,0.15,0.65-0.12,0.86
				C419.02,94.31,418.89,94.35,418.76,94.35z"/>
			<path class="st15" d="M428.16,83.32c-0.08,0-0.17-0.02-0.25-0.05c-0.31-0.14-0.44-0.5-0.3-0.81c0.54-1.18,5.37-11.53,9.42-11.9
				c0.34-0.02,0.63,0.22,0.66,0.56s-0.22,0.63-0.56,0.67c-2.84,0.25-7.04,8.16-8.42,11.18C428.62,83.19,428.39,83.32,428.16,83.32z"
				/>
			<path class="st15" d="M430.21,99.82c-0.06,0-0.11-0.01-0.17-0.02c-0.32-0.09-0.51-0.43-0.42-0.76
				c0.63-2.16,3.93-12.95,7.33-13.68c0.33-0.07,0.66,0.14,0.73,0.47s-0.14,0.66-0.47,0.73c-2.08,0.44-5.04,8.1-6.41,12.82
				C430.72,99.65,430.48,99.82,430.21,99.82z"/>
			<path class="st15" d="M449.58,91.48c-0.12,0-0.24-0.04-0.35-0.11c-0.28-0.19-0.35-0.58-0.15-0.85c1.88-2.69,5.3-3.54,5.45-3.57
				c0.32-0.08,0.66,0.12,0.74,0.45c0.08,0.33-0.12,0.66-0.45,0.74c-0.03,0.01-3.12,0.78-4.73,3.08
				C449.97,91.39,449.77,91.48,449.58,91.48z"/>
		</g>
	</g>
	<g>
		<g>
			<g>
				<path class="st1" d="M100.86,194.52c0.97,1.27,1.45,2.8,1.45,4.59c0,2.62-1.05,4.65-3.16,6.07s-5.16,2.14-9.15,2.14H73.85V177.4
					h15.3c3.82,0,6.73,0.71,8.72,2.12c1.99,1.41,2.99,3.31,2.99,5.71c0,1.43-0.35,2.7-1.05,3.83s-1.69,2.02-2.97,2.67
					C98.55,192.31,99.89,193.25,100.86,194.52z M82.22,183.51v5.77h5.81c2.85,0,4.27-0.97,4.27-2.91c0-1.91-1.43-2.86-4.27-2.86
					H82.22z M93.76,198.17c0-2.02-1.48-3.03-4.45-3.03h-7.1v6.07h7.1C92.28,201.2,93.76,200.19,93.76,198.17z"/>
				<path class="st1" d="M117.29,184.56c1.33-0.53,2.84-0.79,4.55-0.79v7.31c-0.74-0.09-1.35-0.13-1.84-0.13
					c-1.74,0-3.1,0.47-4.08,1.41c-0.98,0.94-1.47,2.38-1.47,4.32v10.64h-8.12v-23.17h7.74v2.78
					C114.89,185.87,115.97,185.08,117.29,184.56z"/>
				<path class="st1" d="M148.52,197.78h-16.84c0.34,1.2,1,2.12,1.99,2.76c0.98,0.64,2.22,0.96,3.7,0.96c1.11,0,2.07-0.16,2.89-0.47
					s1.63-0.83,2.46-1.54l4.27,4.45c-2.25,2.51-5.54,3.76-9.87,3.76c-2.71,0-5.09-0.51-7.14-1.54c-2.05-1.03-3.64-2.45-4.77-4.27
					c-1.13-1.82-1.69-3.89-1.69-6.2c0-2.28,0.55-4.32,1.65-6.13c1.1-1.81,2.61-3.23,4.55-4.25c1.94-1.03,4.12-1.54,6.54-1.54
					c2.31,0,4.4,0.48,6.28,1.43c1.88,0.96,3.37,2.34,4.47,4.15c1.1,1.81,1.65,3.95,1.65,6.43
					C148.65,195.83,148.6,196.5,148.52,197.78z M133.15,190.6c-0.84,0.71-1.38,1.68-1.6,2.91h9.49c-0.23-1.23-0.76-2.19-1.6-2.91
					c-0.84-0.71-1.89-1.07-3.14-1.07C135.04,189.54,133.99,189.89,133.15,190.6z"/>
				<path class="st1" d="M190.37,184.15l-8.25,23.17h-7.86l-4.36-12.61l-4.53,12.61h-7.86l-8.25-23.17h7.69l4.74,14.02l4.92-14.02
					h6.92l4.79,14.15l4.92-14.15H190.37z"/>
				<path class="st1" d="M215.75,197.78h-16.84c0.34,1.2,1,2.12,1.99,2.76c0.98,0.64,2.22,0.96,3.7,0.96c1.11,0,2.07-0.16,2.89-0.47
					s1.63-0.83,2.46-1.54l4.27,4.45c-2.25,2.51-5.54,3.76-9.87,3.76c-2.71,0-5.09-0.51-7.14-1.54c-2.05-1.03-3.64-2.45-4.77-4.27
					c-1.13-1.82-1.69-3.89-1.69-6.2c0-2.28,0.55-4.32,1.65-6.13c1.1-1.81,2.61-3.23,4.55-4.25c1.94-1.03,4.12-1.54,6.54-1.54
					c2.31,0,4.4,0.48,6.28,1.43c1.88,0.96,3.37,2.34,4.47,4.15c1.1,1.81,1.65,3.95,1.65,6.43
					C215.88,195.83,215.84,196.5,215.75,197.78z M200.39,190.6c-0.84,0.71-1.38,1.68-1.6,2.91h9.49c-0.23-1.23-0.76-2.19-1.6-2.91
					c-0.84-0.71-1.89-1.07-3.14-1.07C202.28,189.54,201.23,189.89,200.39,190.6z"/>
				<path class="st1" d="M230.61,184.56c1.33-0.53,2.84-0.79,4.55-0.79v7.31c-0.74-0.09-1.35-0.13-1.84-0.13
					c-1.74,0-3.1,0.47-4.08,1.41c-0.98,0.94-1.47,2.38-1.47,4.32v10.64h-8.12v-23.17h7.74v2.78
					C228.21,185.87,229.28,185.08,230.61,184.56z"/>
				<path class="st1" d="M263.63,184.15l-10,24.11c-1.17,2.85-2.59,4.85-4.27,6c-1.68,1.15-3.73,1.73-6.15,1.73
					c-1.23,0-2.46-0.19-3.7-0.58c-1.24-0.38-2.24-0.89-3.01-1.52l2.82-5.68c0.46,0.43,1,0.76,1.65,1c0.64,0.24,1.29,0.36,1.94,0.36
					c0.77,0,1.4-0.16,1.9-0.47c0.5-0.31,0.92-0.81,1.26-1.5l-9.92-23.47h8.33l5.69,14.15l5.73-14.15H263.63z"/>
			</g>
		</g>
		<g>
			<g>
				<path class="st1" d="M113.01,223.89c0.6,0.34,1.07,0.81,1.42,1.43c0.34,0.61,0.51,1.32,0.51,2.14s-0.17,1.53-0.51,2.14
					c-0.34,0.61-0.82,1.09-1.42,1.42s-1.27,0.51-2.01,0.51c-1.09,0-1.92-0.34-2.48-1.03v0.91h-2.19v-10.9h2.29v3.84
					c0.58-0.64,1.37-0.96,2.38-0.96C111.74,223.38,112.41,223.55,113.01,223.89z M112.06,229.04c0.38-0.4,0.57-0.93,0.57-1.59
					s-0.19-1.2-0.57-1.59c-0.38-0.4-0.86-0.59-1.45-0.59s-1.07,0.2-1.45,0.59c-0.38,0.4-0.57,0.93-0.57,1.59s0.19,1.2,0.57,1.59
					c0.38,0.4,0.86,0.59,1.45,0.59S111.68,229.44,112.06,229.04z"/>
				<path class="st1" d="M124.1,223.5l-3.57,8.39c-0.36,0.91-0.81,1.55-1.34,1.92s-1.18,0.56-1.93,0.56c-0.41,0-0.82-0.06-1.22-0.19
					c-0.4-0.13-0.73-0.3-0.98-0.53l0.84-1.63c0.18,0.16,0.38,0.28,0.61,0.37c0.23,0.09,0.46,0.13,0.68,0.13
					c0.31,0,0.57-0.08,0.76-0.23c0.2-0.15,0.37-0.4,0.53-0.76l0.03-0.07l-3.42-7.96h2.37l2.22,5.36l2.23-5.36H124.1z"/>
				<path class="st1" d="M141.88,224.19c0.58,0.59,0.87,1.47,0.87,2.66v4.56h-2.79v-4.1c0-0.56-0.11-0.97-0.32-1.23
					c-0.21-0.26-0.51-0.4-0.89-0.4c-0.42,0-0.76,0.15-1.01,0.44s-0.38,0.74-0.38,1.34v3.95h-2.79v-4.1c0-1.09-0.4-1.63-1.21-1.63
					c-0.43,0-0.77,0.15-1.03,0.44c-0.25,0.29-0.38,0.74-0.38,1.34v3.95h-2.79v-7.96h2.66v0.84c0.29-0.32,0.64-0.57,1.05-0.73
					c0.41-0.16,0.85-0.24,1.33-0.24c0.56,0,1.06,0.1,1.5,0.31c0.44,0.21,0.8,0.52,1.07,0.94c0.31-0.4,0.71-0.71,1.19-0.93
					c0.48-0.22,1-0.32,1.57-0.32C140.51,223.3,141.29,223.6,141.88,224.19z"/>
				<path class="st1" d="M144.68,222.13c-0.31-0.28-0.47-0.64-0.47-1.06c0-0.42,0.16-0.77,0.47-1.06s0.73-0.43,1.23-0.43
					s0.92,0.13,1.23,0.4s0.47,0.62,0.47,1.04c0,0.44-0.16,0.81-0.47,1.09s-0.73,0.43-1.23,0.43S144.99,222.41,144.68,222.13z
					 M144.51,223.44h2.79v7.96h-2.79V223.44z"/>
				<path class="st1" d="M150.82,231.01c-0.7-0.35-1.24-0.84-1.62-1.47c-0.39-0.63-0.58-1.34-0.58-2.13c0-0.79,0.19-1.5,0.58-2.12
					c0.39-0.62,0.93-1.11,1.62-1.45c0.7-0.35,1.48-0.52,2.37-0.52c0.9,0,1.68,0.19,2.34,0.58c0.66,0.39,1.12,0.92,1.4,1.61
					l-2.16,1.1c-0.36-0.71-0.89-1.07-1.59-1.07c-0.5,0-0.91,0.17-1.24,0.5c-0.33,0.33-0.49,0.79-0.49,1.38c0,0.6,0.16,1.07,0.49,1.4
					s0.74,0.51,1.24,0.51c0.7,0,1.22-0.36,1.59-1.07l2.16,1.1c-0.27,0.69-0.74,1.22-1.4,1.61c-0.66,0.39-1.44,0.58-2.34,0.58
					C152.3,231.53,151.51,231.36,150.82,231.01z"/>
				<path class="st1" d="M165.52,224.19c0.6,0.59,0.9,1.47,0.9,2.66v4.56h-2.79v-4.1c0-1.09-0.44-1.63-1.31-1.63
					c-0.48,0-0.86,0.16-1.15,0.47s-0.43,0.78-0.43,1.41v3.85h-2.79v-10.9h2.79v3.67c0.3-0.28,0.66-0.5,1.07-0.65
					c0.41-0.15,0.85-0.22,1.32-0.22C164.12,223.3,164.92,223.6,165.52,224.19z"/>
				<path class="st1" d="M176.39,228.12h-5.79c0.12,0.41,0.35,0.73,0.68,0.95c0.34,0.22,0.76,0.33,1.27,0.33
					c0.38,0,0.71-0.05,0.99-0.16c0.28-0.11,0.56-0.28,0.85-0.53l1.47,1.53c-0.77,0.86-1.91,1.29-3.4,1.29
					c-0.93,0-1.75-0.18-2.45-0.53c-0.71-0.35-1.25-0.84-1.64-1.47c-0.39-0.63-0.58-1.34-0.58-2.13c0-0.78,0.19-1.49,0.57-2.11
					c0.38-0.62,0.9-1.11,1.57-1.46c0.67-0.35,1.42-0.53,2.25-0.53c0.79,0,1.51,0.17,2.16,0.49c0.65,0.33,1.16,0.8,1.54,1.42
					c0.38,0.62,0.57,1.36,0.57,2.21C176.43,227.45,176.42,227.68,176.39,228.12z M171.1,225.66c-0.29,0.25-0.47,0.58-0.55,1h3.26
					c-0.08-0.42-0.26-0.75-0.55-1c-0.29-0.24-0.65-0.37-1.08-0.37S171.39,225.41,171.1,225.66z"/>
				<path class="st1" d="M177.73,220.5h2.79v10.9h-2.79V220.5z"/>
				<path class="st1" d="M188.75,224.21c0.7,0.6,1.04,1.53,1.04,2.77v4.42h-2.6v-1.03c-0.4,0.77-1.19,1.16-2.35,1.16
					c-0.62,0-1.15-0.11-1.6-0.32c-0.45-0.21-0.79-0.51-1.02-0.87c-0.23-0.37-0.35-0.79-0.35-1.26c0-0.75,0.29-1.34,0.87-1.76
					c0.58-0.42,1.47-0.62,2.67-0.62H187c-0.05-0.84-0.61-1.26-1.69-1.26c-0.38,0-0.77,0.06-1.16,0.18c-0.39,0.12-0.73,0.29-1,0.51
					l-0.94-1.9c0.44-0.29,0.98-0.52,1.61-0.68c0.63-0.16,1.27-0.24,1.9-0.24C187.04,223.3,188.05,223.61,188.75,224.21z
					 M186.47,229.54c0.24-0.16,0.42-0.39,0.53-0.69v-0.69h-1.21c-0.81,0-1.22,0.27-1.22,0.81c0,0.25,0.09,0.44,0.28,0.59
					c0.19,0.15,0.44,0.22,0.76,0.22C185.94,229.77,186.22,229.69,186.47,229.54z"/>
				<path class="st1" d="M200.14,220.5v10.9h-2.66v-0.79c-0.52,0.62-1.3,0.93-2.34,0.93c-0.73,0-1.39-0.17-1.98-0.51
					c-0.6-0.34-1.07-0.82-1.42-1.45s-0.52-1.35-0.52-2.17s0.17-1.55,0.52-2.17s0.82-1.1,1.42-1.43c0.6-0.33,1.26-0.5,1.98-0.5
					c0.95,0,1.68,0.27,2.2,0.82v-3.63H200.14z M196.92,228.81c0.31-0.34,0.47-0.81,0.47-1.4c0-0.59-0.15-1.05-0.46-1.38
					c-0.31-0.33-0.71-0.5-1.2-0.5c-0.49,0-0.89,0.17-1.2,0.5c-0.31,0.33-0.47,0.79-0.47,1.38c0,0.6,0.16,1.07,0.47,1.4
					c0.31,0.34,0.71,0.51,1.2,0.51C196.21,229.32,196.6,229.15,196.92,228.81z"/>
				<path class="st1" d="M208.35,224.21c0.7,0.6,1.04,1.53,1.04,2.77v4.42h-2.6v-1.03c-0.4,0.77-1.19,1.16-2.35,1.16
					c-0.62,0-1.15-0.11-1.6-0.32c-0.45-0.21-0.79-0.51-1.02-0.87c-0.23-0.37-0.35-0.79-0.35-1.26c0-0.75,0.29-1.34,0.87-1.76
					c0.58-0.42,1.47-0.62,2.67-0.62h1.59c-0.05-0.84-0.61-1.26-1.69-1.26c-0.38,0-0.77,0.06-1.16,0.18c-0.39,0.12-0.73,0.29-1,0.51
					l-0.94-1.9c0.44-0.29,0.98-0.52,1.61-0.68c0.63-0.16,1.27-0.24,1.9-0.24C206.65,223.3,207.65,223.61,208.35,224.21z
					 M206.07,229.54c0.24-0.16,0.42-0.39,0.53-0.69v-0.69h-1.21c-0.81,0-1.22,0.27-1.22,0.81c0,0.25,0.09,0.44,0.28,0.59
					c0.19,0.15,0.44,0.22,0.76,0.22C205.54,229.77,205.83,229.69,206.07,229.54z"/>
				<path class="st1" d="M211.14,231.06c-0.32-0.31-0.48-0.71-0.48-1.19c0-0.49,0.16-0.89,0.48-1.19c0.32-0.3,0.72-0.46,1.2-0.46
					c0.49,0,0.89,0.15,1.2,0.46s0.47,0.7,0.47,1.19c0,0.48-0.16,0.88-0.48,1.19s-0.72,0.47-1.2,0.47
					C211.86,231.53,211.47,231.38,211.14,231.06z"/>
				<path class="st1" d="M215.48,222.13c-0.31-0.28-0.47-0.64-0.47-1.06c0-0.42,0.16-0.77,0.47-1.06s0.73-0.43,1.23-0.43
					s0.92,0.13,1.23,0.4s0.47,0.62,0.47,1.04c0,0.44-0.16,0.81-0.47,1.09s-0.73,0.43-1.23,0.43S215.79,222.41,215.48,222.13z
					 M215.32,223.44h2.79v7.96h-2.79V223.44z"/>
				<path class="st1" d="M221.6,231.01c-0.69-0.35-1.22-0.84-1.61-1.47c-0.39-0.63-0.58-1.34-0.58-2.13c0-0.78,0.19-1.49,0.58-2.12
					c0.39-0.63,0.92-1.11,1.6-1.46c0.68-0.35,1.45-0.52,2.31-0.52c0.86,0,1.64,0.17,2.32,0.52c0.69,0.35,1.22,0.83,1.6,1.45
					c0.38,0.62,0.57,1.33,0.57,2.12c0,0.79-0.19,1.5-0.57,2.13c-0.38,0.63-0.92,1.12-1.6,1.47c-0.69,0.35-1.46,0.53-2.32,0.53
					C223.06,231.53,222.29,231.36,221.6,231.01z M225.12,228.81c0.31-0.34,0.47-0.81,0.47-1.4c0-0.59-0.16-1.05-0.47-1.38
					c-0.31-0.33-0.72-0.5-1.21-0.5s-0.89,0.17-1.21,0.5c-0.31,0.33-0.47,0.79-0.47,1.38c0,0.6,0.16,1.07,0.47,1.4
					s0.72,0.51,1.21,0.51S224.8,229.15,225.12,228.81z"/>
			</g>
		</g>
		<g>
			<g>
				<path class="st27" d="M201.84,135.09h-68.4c-4.14,0-7.5-3.36-7.5-7.5V62.18c0-4.14,3.36-7.5,7.5-7.5h68.4
					c4.14,0,7.5,3.36,7.5,7.5v65.41C209.34,131.74,205.98,135.09,201.84,135.09z"/>
				<path class="st1" d="M205.63,141.14H128.8c-4.94,0-8.96-4.02-8.96-8.96V56.7c0-4.94,4.02-8.96,8.96-8.96h76.83
					c4.94,0,8.96,4.02,8.96,8.96v75.48C214.59,137.12,210.57,141.14,205.63,141.14z M128.8,49.64c-3.89,0-7.06,3.17-7.06,7.06v75.48
					c0,3.89,3.17,7.06,7.06,7.06h76.83c3.89,0,7.06-3.17,7.06-7.06V56.7c0-3.89-3.17-7.06-7.06-7.06H128.8z"/>
				<g>
					<g>
						<path class="st1" d="M154.98,85.07l-3.42-1.34c0.72-1.84,7.28-17.99,15.66-18c0,0,0,0,0.01,0c8.4,0,14.96,16.16,15.67,18
							l-3.42,1.34c-2.37-6.06-7.79-15.66-12.25-15.66c0,0,0,0,0,0C162.77,69.41,157.35,79.01,154.98,85.07z"/>
						<path class="st1" d="M176.46,101.7c-2.17-8.46-6.4-17.51-9.24-17.51c-2.04,0-6.35,5.55-9.13,17.48l-3.58-0.83
							c0.79-3.39,5.12-20.32,12.71-20.32c7.24,0,11.93,16.89,12.8,20.28L176.46,101.7z"/>
						<path class="st1" d="M167.22,125.09c-7.13,0-14.09-3.09-19.59-8.71c-5.05-5.16-8.33-11.88-8.99-18.45
							c-0.08-0.84,0.19-1.7,0.75-2.35c0.56-0.66,1.37-1.06,2.23-1.11c10.49-0.59,15.86,4.67,18.24,8.22
							c3.67-7.26,5.86-8.21,7.36-8.21c3.1,0,6,4.79,7.59,8c5.13-7.49,14.23-8.09,17.96-7.99c0.86,0.02,1.69,0.4,2.27,1.02
							c0.58,0.63,0.88,1.44,0.84,2.29C195.14,113.1,182.55,125.09,167.22,125.09z M142.36,98.11c1.41,11.14,11.79,23.3,24.86,23.3
							c13.19,0,24.05-10.17,24.95-23.26c-3.41-0.04-10.7,0.72-14.56,6.75c-0.67,1.04-1.83,1.66-3.06,1.56
							c-1.22-0.08-2.27-0.78-2.8-1.9c-1.78-3.73-3.67-6.02-4.47-6.38c-0.6,0.36-2.13,2.1-4.38,6.65c-0.54,1.09-1.63,1.8-2.84,1.86
							c-1.19,0.07-2.35-0.54-2.99-1.56C154.94,101.75,150.67,97.83,142.36,98.11z M167.38,98.14L167.38,98.14z"/>
						<path class="st1" d="M190.43,97.43l-3.21-1.79l1.6,0.9l-1.61-0.88c0.09-0.17,2.09-4.1-0.93-10.53c-2.13,0-6.76,0.77-9.91,6.82
							l-3.26-1.69c4.38-8.44,11.52-8.86,13.59-8.79c1.18,0.04,2.23,0.73,2.75,1.79C193.56,91.66,190.56,97.2,190.43,97.43z"/>
						<path class="st1" d="M144.14,97.19c-0.13-0.23-3.07-5.67,0.95-13.94c0.52-1.07,1.57-1.75,2.76-1.79
							c2.04-0.06,9.05,0.36,13.36,8.66l-3.26,1.69c-3.07-5.91-7.59-6.67-9.68-6.68c-2.95,6.3-0.94,10.23-0.92,10.27L144.14,97.19z"
							/>
					</g>
					<path class="st1" d="M168.09,128.41h-1.21c-0.65,0-1.17-0.53-1.17-1.17v-2.84c0-0.65,0.53-1.17,1.17-1.17h1.21
						c0.65,0,1.17,0.53,1.17,1.17v2.84C169.27,127.89,168.74,128.41,168.09,128.41z"/>
				</g>
				<path class="st26" d="M228,67.85c0.72,0,1.31-0.59,1.31-1.31s-0.59-1.31-1.31-1.31h-8.24V53.9H228c0.72,0,1.31-0.59,1.31-1.31
					s-0.59-1.31-1.31-1.31h-8.27c-0.32-5.02-4.34-9.03-9.35-9.35v-8.27c0-0.72-0.59-1.31-1.31-1.31s-1.31,0.59-1.31,1.31v8.24
					h-11.33v-8.24c0-0.72-0.59-1.31-1.31-1.31s-1.31,0.59-1.31,1.31v8.24h-11.33v-8.24c0-0.72-0.59-1.31-1.31-1.31
					s-1.31,0.59-1.31,1.31v8.24h-11.33v-8.24c0-0.72-0.59-1.31-1.31-1.31s-1.31,0.59-1.31,1.31v8.24h-11.33v-8.24
					c0-0.72-0.59-1.31-1.31-1.31s-1.31,0.59-1.31,1.31v8.24h-11.33v-8.24c0-0.72-0.59-1.31-1.31-1.31s-1.31,0.59-1.31,1.31v8.24
					h-11.33v-8.24c0-0.72-0.59-1.31-1.31-1.31s-1.31,0.59-1.31,1.31v8.27c-5.02,0.32-9.03,4.33-9.35,9.35h-8.27
					c-0.72,0-1.31,0.59-1.31,1.31s0.59,1.31,1.31,1.31h8.24v11.33h-8.24c-0.72,0-1.31,0.59-1.31,1.31s0.59,1.31,1.31,1.31h8.24
					v11.33h-8.24c-0.72,0-1.31,0.59-1.31,1.31s0.59,1.31,1.31,1.31h8.24v11.33h-8.24c-0.72,0-1.31,0.59-1.31,1.31
					s0.59,1.31,1.31,1.31h8.24v11.33h-8.24c-0.72,0-1.31,0.59-1.31,1.31s0.59,1.31,1.31,1.31h8.24v11.33h-8.24
					c-0.72,0-1.31,0.59-1.31,1.31s0.59,1.31,1.31,1.31h8.24v11.33h-8.24c-0.72,0-1.31,0.59-1.31,1.31s0.59,1.31,1.31,1.31h8.27
					c0.32,5.02,4.34,9.03,9.35,9.35v8.27c0,0.72,0.59,1.31,1.31,1.31s1.31-0.59,1.31-1.31v-8.24h11.33v8.24
					c0,0.72,0.59,1.31,1.31,1.31s1.31-0.59,1.31-1.31v-8.24h11.33v8.24c0,0.72,0.59,1.31,1.31,1.31s1.31-0.59,1.31-1.31v-8.24h11.33
					v8.24c0,0.72,0.59,1.31,1.31,1.31s1.31-0.59,1.31-1.31v-8.24h11.33v8.24c0,0.72,0.59,1.31,1.31,1.31s1.31-0.59,1.31-1.31v-8.24
					h11.33v8.24c0,0.72,0.59,1.31,1.31,1.31s1.31-0.59,1.31-1.31v-8.24h11.33v8.24c0,0.72,0.59,1.31,1.31,1.31s1.31-0.59,1.31-1.31
					v-8.27c5.02-0.32,9.03-4.33,9.35-9.35H228c0.72,0,1.31-0.59,1.31-1.31s-0.59-1.31-1.31-1.31h-8.24v-11.33H228
					c0.72,0,1.31-0.59,1.31-1.31s-0.59-1.31-1.31-1.31h-8.24V109.7H228c0.72,0,1.31-0.59,1.31-1.31s-0.59-1.31-1.31-1.31h-8.24
					V95.75H228c0.72,0,1.31-0.59,1.31-1.31s-0.59-1.31-1.31-1.31h-8.24V81.8H228c0.72,0,1.31-0.59,1.31-1.31s-0.59-1.31-1.31-1.31
					h-8.24V67.85H228z M217.31,136.96c0,4.18-3.4,7.57-7.57,7.57H124.7c-4.18,0-7.57-3.4-7.57-7.57V51.92c0-4.18,3.4-7.57,7.57-7.57
					h85.04c4.18,0,7.57,3.4,7.57,7.57V136.96z"/>
			</g>
			<circle class="st1" cx="202.15" cy="127.14" r="3.04"/>
			<circle class="st1" cx="202.15" cy="63.19" r="3.04"/>
			<circle class="st1" cx="133.77" cy="127.14" r="3.04"/>
			<circle class="st1" cx="133.77" cy="63.19" r="3.04"/>
			<path class="st15" d="M203.79,130.57c-0.21,0-0.41-0.11-0.53-0.3l-3.3-5.62c-0.17-0.29-0.07-0.67,0.22-0.84
				c0.29-0.17,0.67-0.07,0.84,0.22l3.3,5.62c0.17,0.29,0.07,0.67-0.22,0.84C204.01,130.54,203.9,130.57,203.79,130.57z"/>
			<path class="st15" d="M200.64,66.43c-0.1,0-0.21-0.03-0.31-0.08c-0.29-0.17-0.39-0.54-0.22-0.84l3.04-5.24
				c0.17-0.29,0.54-0.39,0.84-0.22c0.29,0.17,0.39,0.54,0.22,0.84l-3.04,5.24C201.06,66.32,200.85,66.43,200.64,66.43z"/>
			<path class="st15" d="M135.67,66.57c-0.19,0-0.39-0.09-0.51-0.27l-3.8-5.54c-0.19-0.28-0.12-0.66,0.16-0.85
				c0.28-0.19,0.66-0.12,0.85,0.16l3.8,5.54c0.19,0.28,0.12,0.66-0.16,0.85C135.91,66.54,135.79,66.57,135.67,66.57z"/>
			<path class="st15" d="M133.77,130.8c-0.34,0-0.61-0.27-0.61-0.61v-6.08c0-0.34,0.27-0.61,0.61-0.61s0.61,0.27,0.61,0.61v6.08
				C134.38,130.52,134.11,130.8,133.77,130.8z"/>
			<path class="st15" d="M166.08,119.24c-0.02,0-0.05,0-0.07,0c-16.56-1.88-21.55-18.37-21.6-18.53c-0.09-0.32,0.09-0.66,0.42-0.76
				c0.33-0.09,0.67,0.09,0.76,0.42c0.05,0.16,4.82,15.88,20.56,17.66c0.34,0.04,0.58,0.34,0.54,0.68
				C166.65,119.01,166.39,119.24,166.08,119.24z"/>
			<path class="st15" d="M148.9,94.35c-0.19,0-0.37-0.08-0.49-0.25c-1.97-2.63-0.16-7.47-0.08-7.68c0.12-0.32,0.47-0.47,0.79-0.35
				s0.47,0.47,0.35,0.79c-0.02,0.04-1.65,4.42-0.08,6.51c0.2,0.27,0.15,0.65-0.12,0.86C149.15,94.31,149.03,94.35,148.9,94.35z"/>
			<path class="st15" d="M158.3,83.32c-0.08,0-0.17-0.02-0.25-0.05c-0.31-0.14-0.44-0.5-0.3-0.81c0.54-1.18,5.37-11.53,9.42-11.9
				c0.34-0.02,0.63,0.22,0.66,0.56s-0.22,0.63-0.56,0.67c-2.84,0.25-7.04,8.16-8.42,11.18C158.75,83.19,158.53,83.32,158.3,83.32z"
				/>
			<path class="st15" d="M160.35,99.82c-0.06,0-0.11-0.01-0.17-0.02c-0.32-0.09-0.51-0.43-0.42-0.76
				c0.63-2.16,3.93-12.95,7.33-13.68c0.33-0.07,0.66,0.14,0.73,0.47s-0.14,0.66-0.47,0.73c-2.08,0.44-5.04,8.1-6.41,12.82
				C160.86,99.65,160.62,99.82,160.35,99.82z"/>
			<path class="st15" d="M179.72,91.48c-0.12,0-0.24-0.04-0.35-0.11c-0.28-0.19-0.35-0.58-0.15-0.85c1.88-2.69,5.3-3.54,5.45-3.57
				c0.32-0.08,0.66,0.12,0.74,0.45c0.08,0.33-0.12,0.66-0.45,0.74c-0.03,0.01-3.12,0.78-4.73,3.08
				C180.1,91.39,179.91,91.48,179.72,91.48z"/>
		</g>
	</g>
</g>
</svg>
